<?xml version="1.0" encoding="UTF-8"?>
<!DOCTYPE svg PUBLIC "-//W3C//DTD SVG 1.1//EN" "http://www.w3.org/Graphics/SVG/1.1/DTD/svg11.dtd">
<!-- Creator: CorelDRAW -->
<svg xmlns="http://www.w3.org/2000/svg" xml:space="preserve" width="47.3534mm" height="17.1557mm" version="1.1" style="shape-rendering:geometricPrecision; text-rendering:geometricPrecision; image-rendering:optimizeQuality; fill-rule:evenodd; clip-rule:evenodd"
viewBox="0 0 268.41 97.24"
 xmlns:xlink="http://www.w3.org/1999/xlink"
 xmlns:xodm="http://www.corel.com/coreldraw/odm/2003">
 <defs>
  <style type="text/css">
   <![CDATA[
    .fil1 {fill:#06DB89}
    .fil0 {fill:white;fill-rule:nonzero}
   ]]>
  </style>
 </defs>
 <g id="Layer_x0020_1">
  <metadata id="CorelCorpID_0Corel-Layer"/>
  <g id="_1633194877952">
   <path class="fil0" d="M-0 60.1l0 -60.1 23.01 0c4.34,0 7.96,0.69 10.84,2.04 2.89,1.36 5.05,3.22 6.49,5.56 1.43,2.36 2.16,5.01 2.16,7.99 0,2.44 -0.47,4.53 -1.42,6.27 -0.94,1.72 -2.19,3.13 -3.79,4.2 -1.58,1.09 -3.35,1.86 -5.3,2.33l0 0.58c2.13,0.12 4.17,0.77 6.14,1.96 1.97,1.18 3.58,2.85 4.83,5 1.25,2.16 1.87,4.75 1.87,7.81 0,3.11 -0.76,5.91 -2.26,8.37 -1.5,2.48 -3.77,4.43 -6.8,5.85 -3.03,1.43 -6.84,2.15 -11.44,2.15l-24.33 0zm1.12 36.81l0 -24.6 2.98 0 0 10.96 13.12 0 0 -10.96 2.98 0 0 24.6 -2.98 0 0 -11 -13.12 0 0 11 -2.98 0zm30.73 0l0 -24.6 14.85 0 0 2.64 -11.87 0 0 8.32 11.1 0 0 2.64 -11.1 0 0 8.36 12.06 0 0 2.64 -15.04 0zm26.94 0l-3.12 0 9.04 -24.6 3.07 0 9.03 24.6 -3.12 0 -2.47 -6.97 -9.95 0 -2.47 6.97zm11.48 -9.61l-3.94 -11.09 -0.19 0 -3.94 11.09 8.07 0zm16.08 9.61l0 -24.6 2.98 0 0 21.96 11.43 0 0 2.64 -14.42 0zm20.12 -21.96l0 -2.64 18.45 0 0 2.64 -7.74 0 0 21.96 -2.98 0 0 -21.96 -7.73 0zm28.76 21.96l0 -24.6 2.98 0 0 10.96 13.12 0 0 -10.96 2.98 0 0 24.6 -2.98 0 0 -11 -13.12 0 0 11 -2.98 0zm50.53 -16.91l-2.98 0c-0.17,-0.86 -0.48,-1.61 -0.92,-2.26 -0.43,-0.65 -0.96,-1.19 -1.58,-1.63 -0.62,-0.45 -1.31,-0.78 -2.06,-1 -0.76,-0.23 -1.54,-0.34 -2.36,-0.34 -1.49,0 -2.84,0.38 -4.04,1.13 -1.21,0.76 -2.16,1.87 -2.87,3.33 -0.71,1.46 -1.07,3.26 -1.07,5.39 0,2.13 0.36,3.93 1.07,5.39 0.71,1.47 1.66,2.58 2.87,3.33 1.21,0.76 2.55,1.13 4.04,1.13 0.82,0 1.6,-0.11 2.36,-0.33 0.75,-0.23 1.44,-0.56 2.06,-1 0.62,-0.44 1.15,-0.99 1.58,-1.65 0.44,-0.65 0.74,-1.4 0.92,-2.25l2.98 0c-0.23,1.26 -0.63,2.38 -1.23,3.38 -0.59,0.99 -1.32,1.84 -2.21,2.53 -0.88,0.69 -1.87,1.22 -2.96,1.58 -1.09,0.36 -2.26,0.54 -3.5,0.54 -2.1,0 -3.96,-0.51 -5.6,-1.54 -1.63,-1.03 -2.92,-2.48 -3.86,-4.37 -0.94,-1.89 -1.4,-4.13 -1.4,-6.73 0,-2.59 0.47,-4.84 1.4,-6.73 0.94,-1.89 2.22,-3.35 3.86,-4.37 1.63,-1.02 3.5,-1.53 5.6,-1.53 1.24,0 2.41,0.18 3.5,0.54 1.09,0.36 2.08,0.89 2.96,1.58 0.89,0.69 1.62,1.53 2.21,2.52 0.6,0.99 1,2.12 1.23,3.38zm11.52 16.91l-3.12 0 9.04 -24.6 3.07 0 9.03 24.6 -3.12 0 -2.47 -6.97 -9.95 0 -2.47 6.97zm11.48 -9.61l-3.94 -11.09 -0.19 0 -3.94 11.09 8.07 0zm28.16 -0.54l5.56 10.15 -3.46 0 -5.19 -9.62c-0.2,0.01 -0.41,0.01 -0.63,0.01l-6.73 0 0 -2.69 6.63 0c1.31,0 2.37,-0.19 3.18,-0.57 0.81,-0.38 1.39,-0.93 1.75,-1.64 0.37,-0.71 0.55,-1.56 0.55,-2.54 0,-0.98 -0.19,-1.84 -0.55,-2.58 -0.37,-0.73 -0.96,-1.31 -1.76,-1.71 -0.81,-0.41 -1.88,-0.61 -3.21,-0.61l-5.24 0 0 21.96 -2.98 0 0 -24.6 8.32 0c1.92,0 3.5,0.33 4.73,0.98 1.23,0.65 2.15,1.55 2.74,2.68 0.59,1.14 0.89,2.43 0.89,3.88 0,1.45 -0.3,2.74 -0.89,3.86 -0.59,1.12 -1.5,2 -2.73,2.64 -0.31,0.16 -0.63,0.3 -0.98,0.42zm15.25 10.15l0 -24.6 14.85 0 0 2.64 -11.87 0 0 8.32 11.1 0 0 2.64 -11.1 0 0 8.36 12.06 0 0 2.64 -15.04 0zm-46.8 -96.9l13.33 0 17.83 43.54 0.7 0 17.85 -43.54 13.32 0 0 60.1 -10.44 0 0 -41.28 -0.56 0 -16.61 41.11 -7.81 0 -16.61 -41.19 -0.55 0 0 41.37 -10.45 0 0 -60.1zm-9.97 60.1l0 -60.1 -39.05 0 -0.01 4.7 -0 0 0 0.67 -0 0.83 0 0 0 2.93 5.29 0 3.22 0 19.69 0 -0.03 16.32 -9.57 0.01 0 9.11 9.59 0 -0.03 16.4 -19.66 0 -3.22 0 -5.53 0 0 4.58 -0.02 4.55 39.33 0zm-88.85 0l0 -60.1 39.05 0 0.01 4.7 0 0 0 1.09 0 0.41 -0 0 0 2.93 -4.79 0 -6.72 0 -16.7 0 0.03 16.32 9.57 0.01 0 9.11 -9.59 0 0.03 16.4 18.59 0 4.8 0 5.02 0 0 3.9 0.02 5.23 -39.33 0zm-52.81 0l0 -60.1 22.54 0c4.61,0 8.5,0.81 11.64,2.41 3.14,1.61 5.51,3.86 7.12,6.73 1.63,2.89 2.42,6.25 2.42,10.08 0,3.86 -0.81,7.19 -2.45,10.03 -1.62,2.82 -4.03,5 -7.2,6.54 -0.37,0.18 -0.75,0.35 -1.14,0.51l13 23.8 -12.15 0 -11.81 -22.01 -15.62 0 0 -9.03 14.58 0c2.7,0 4.9,-0.39 6.62,-1.13 1.72,-0.76 3,-1.86 3.83,-3.32 0.84,-1.46 1.25,-3.25 1.25,-5.38 0,-2.13 -0.43,-3.95 -1.27,-5.47 -0.84,-1.52 -2.12,-2.67 -3.84,-3.47 -1.72,-0.79 -3.94,-1.18 -6.67,-1.18l-9.97 0 0 50.99 -10.89 0zm-42.85 -9.1l11.71 0c3.95,0 6.8,-0.76 8.55,-2.27 1.75,-1.51 2.63,-3.46 2.63,-5.85 0,-1.78 -0.44,-3.39 -1.32,-4.82 -0.88,-1.45 -2.13,-2.58 -3.76,-3.4 -1.63,-0.84 -3.55,-1.25 -5.81,-1.25l-11.99 0 0 17.6zm0 -25.43l10.77 0c1.87,0 3.57,-0.34 5.07,-1.03 1.51,-0.7 2.7,-1.69 3.57,-2.97 0.88,-1.28 1.31,-2.8 1.31,-4.56 0,-2.33 -0.81,-4.24 -2.45,-5.76 -1.63,-1.5 -4.05,-2.26 -7.26,-2.26l-11 0 0 16.58z"/>
   <polygon class="fil1" points="133.92,24.37 145.69,24.37 145.69,24.37 145.69,13.08 156.71,13.08 156.71,24.37 168.05,24.37 168.05,35.4 156.71,35.4 156.71,47.02 145.69,47.02 145.69,35.4 133.92,35.4 "/>
  </g>
 </g>
</svg>
