<?xml version="1.0" encoding="UTF-8"?>
<!DOCTYPE svg PUBLIC "-//W3C//DTD SVG 1.1//EN" "http://www.w3.org/Graphics/SVG/1.1/DTD/svg11.dtd">
<!-- Creator: CorelDRAW -->
<svg xmlns="http://www.w3.org/2000/svg" xml:space="preserve" width="15.6754mm" height="10.6024mm" version="1.1" style="shape-rendering:geometricPrecision; text-rendering:geometricPrecision; image-rendering:optimizeQuality; fill-rule:evenodd; clip-rule:evenodd"
viewBox="0 0 29.29 19.81"
 xmlns:xlink="http://www.w3.org/1999/xlink"
 xmlns:xodm="http://www.corel.com/coreldraw/odm/2003">
 <defs>
  <style type="text/css">
   <![CDATA[
    .fil0 {fill:#01434F}
    .fil1 {fill:#06DB89}
   ]]>
  </style>
 </defs>
 <g id="Layer_x0020_1">
  <metadata id="CorelCorpID_0Corel-Layer"/>
  <g id="_1633429780800">
   <polygon class="fil0" points="-0,19.81 -0,0 12.87,0 12.88,1.55 12.88,1.55 12.88,1.91 12.88,2.04 12.88,2.04 12.88,3.01 11.3,3.01 9.09,3.01 3.58,3.01 3.59,8.39 6.74,8.39 6.74,11.39 3.58,11.39 3.59,16.8 9.72,16.8 11.3,16.8 12.96,16.8 12.96,18.09 12.97,19.81 "/>
   <polygon class="fil0" points="29.29,19.81 29.29,0 16.42,0 16.41,1.55 16.41,1.55 16.41,1.77 16.41,2.04 16.41,2.04 16.41,3.01 18.16,3.01 19.22,3.01 25.71,3.01 25.7,8.39 22.55,8.39 22.55,11.39 25.71,11.39 25.7,16.8 19.22,16.8 18.16,16.8 16.33,16.8 16.33,18.31 16.33,19.81 "/>
   <polygon class="fil1" points="9.02,8.03 12.9,8.03 16.49,8.03 16.53,8.03 16.53,8.03 12.9,8.03 12.9,4.31 16.53,4.31 16.53,8.03 20.27,8.03 20.27,11.67 16.53,11.67 16.53,15.5 12.9,15.5 12.9,11.67 9.02,11.67 "/>
  </g>
 </g>
</svg>
